<svg id="Layer_1" data-name="Layer 1" xmlns="http://www.w3.org/2000/svg" viewBox="0 0 259.53 257.8"><defs><style>.cls-1{fill:#d3a971;}.cls-1,.cls-2,.cls-4,.cls-5{stroke:#3d3d3d;stroke-width:4px;}.cls-1,.cls-2,.cls-4{stroke-miterlimit:10;}.cls-2{fill:#795548;}.cls-3{fill:#3d3d3d;}.cls-4{fill:none;}.cls-4,.cls-5{stroke-linecap:round;}.cls-5{fill:#fff;stroke-linejoin:round;}</style></defs><title>sweet-tooth-logo</title><path class="cls-1" d="M148.74,276.5c19.54,0,28-7.75,42.93-7.48S227,256.5,229.4,247.45s15.84-22.45,29-34.33,17.36-39.37,19.11-48.87-5.28-32.54-5.34-42.12C272.07,107.33,253.24,87,252,77s-14.54-25.22-23-27.72-22-3.75-34.16-17.09c-10.49-11.5-37.16-9.61-44.31-8.87a16.39,16.39,0,0,1-3.57,0c-6.83-.75-31.36-2.55-41.78,8.88C93,45.5,79.51,46.75,71,49.25S49.17,66.93,48,77s-20,30.36-20.12,45.16c-.06,9.58-7.09,32.62-5.34,42.12s6,37,19.11,48.87,26.57,25.28,29,34.33S93.39,269.3,108.33,269s23.39,7.48,42.93,7.48" transform="translate(-20.24 -20.7)"/><circle class="cls-2" cx="42.28" cy="95.17" r="8.01"/><circle class="cls-2" cx="134.26" cy="19.4" r="8.01"/><circle class="cls-2" cx="91.02" cy="58.61" r="8.01"/><circle class="cls-2" cx="198.29" cy="62.81" r="8.01"/><circle class="cls-2" cx="34.26" cy="158.61" r="8.01"/><circle class="cls-2" cx="227.26" cy="115.93" r="8.01"/><circle class="cls-2" cx="182.26" cy="225.81" r="8.01"/><circle class="cls-2" cx="194.76" cy="156" r="8.01"/><circle class="cls-2" cx="129.76" cy="196.57" r="8.01"/><circle class="cls-2" cx="68" cy="217.8" r="8.01"/><circle class="cls-3" cx="99.6" cy="99.3" r="8.61"/><circle class="cls-3" cx="159.93" cy="99.3" r="8.61"/><path class="cls-4" d="M152.33,173.33s-29.16,6.67-41.08-20.66" transform="translate(-20.24 -20.7)"/><path class="cls-5" d="M114.49,159.76l-8.94,16.07,14.34,11.5,9.57-15.88C124.82,170.43,119.85,166.69,114.49,159.76Z" transform="translate(-20.24 -20.7)"/></svg>